<svg width="28" height="28" viewBox="0 0 28 28" fill="none" xmlns="http://www.w3.org/2000/svg">
<path fill-rule="evenodd" clip-rule="evenodd" d="M1.45703 13.9999C1.45703 7.07335 7.07213 1.45825 13.9987 1.45825C20.9253 1.45825 26.5404 7.07335 26.5404 13.9999C26.5404 20.9265 20.9253 26.5416 13.9987 26.5416C7.07213 26.5416 1.45703 20.9265 1.45703 13.9999ZM13.9987 3.20825C8.03863 3.20825 3.20703 8.03985 3.20703 13.9999C3.20703 19.96 8.03863 24.7916 13.9987 24.7916C19.9588 24.7916 24.7904 19.96 24.7904 13.9999C24.7904 8.03985 19.9588 3.20825 13.9987 3.20825ZM10.7045 11.3749L11.6442 10.5871C12.0145 10.2767 12.063 9.72477 11.7526 9.35444C11.4421 8.98412 10.8902 8.9356 10.5199 9.24607L8.46972 10.9649C8.07639 11.2946 7.87775 11.7646 7.87381 12.2359C7.87373 12.2406 7.8737 12.2453 7.8737 12.2499C7.8737 12.2544 7.87373 12.2588 7.8738 12.2632C7.87737 12.735 8.07601 13.2055 8.46972 13.5355L10.52 15.2539C10.8903 15.5643 11.4422 15.5157 11.7526 15.1453C12.0631 14.775 12.0145 14.2231 11.6441 13.9127L10.7042 13.1249H16.0404C17.1679 13.1249 18.082 14.039 18.082 15.1666C18.082 16.2942 17.1679 17.2083 16.0404 17.2083H13.707C13.2238 17.2083 12.832 17.6 12.832 18.0833C12.832 18.5665 13.2238 18.9583 13.707 18.9583H16.0404C18.1344 18.9583 19.832 17.2607 19.832 15.1666C19.832 13.0725 18.1344 11.3749 16.0404 11.3749H10.7045Z" fill="#14151B"/>
</svg>
